<?xml version="1.0" encoding="UTF-8"?>
<svg width="146px" height="48px" viewBox="0 0 146 48" version="1.1" xmlns="http://www.w3.org/2000/svg" xmlns:xlink="http://www.w3.org/1999/xlink">
    <title>HUAWEI AppGallery</title>
    <g id="-" stroke="none" stroke-width="1" fill="none" fill-rule="evenodd">
        <g id="Layouts/Footer/Light" transform="translate(-378.000000, -318.000000)">
            <g id="HUAWEI-AppGallery" transform="translate(378.000000, 318.000000)">
                <rect id="Rectangle-Copy" fill="#040707" x="0" y="0" width="146" height="48" rx="8"></rect>
                <g id="Gövde-Tipine-Göre-Ara-Copy-27" transform="translate(49.000000, 10.000000)" fill="#FFFFFF" fill-rule="nonzero">
                    <path d="M8.16,11.84 L7.36,9.568 L2.704,9.568 L1.904,11.84 L0,11.84 L3.984,0.704 L6.096,0.704 L10.08,11.84 L8.16,11.84 Z M3.2,8.144 L6.864,8.144 L5.04,2.912 L3.2,8.144 Z" id="Shape"></path>
                    <path d="M18.192,9.584 C18.7253333,9.02933333 18.992,8.29866667 18.992,7.392 C18.992,6.48533333 18.728,5.77066667 18.2,5.248 C17.672,4.72533333 17.0426667,4.464 16.312,4.464 C15.5813333,4.464 14.952,4.73066667 14.424,5.264 C13.896,5.79733333 13.632,6.51733333 13.632,7.424 C13.632,8.33066667 13.896,9.05333333 14.424,9.592 C14.952,10.1306667 15.5786667,10.4 16.304,10.4 C17.0293333,10.4 17.6586667,10.128 18.192,9.584 Z M16.704,2.88 C17.888,2.88 18.8746667,3.29866667 19.664,4.136 C20.4533333,4.97333333 20.848,6.06133333 20.848,7.4 C20.848,8.73866667 20.4506667,9.83733333 19.656,10.696 C18.8613333,11.5546667 17.8773333,11.984 16.704,11.984 C16.0106667,11.984 15.4026667,11.8213333 14.88,11.496 C14.3573333,11.1706667 13.9413333,10.736 13.632,10.192 L13.632,16.032 L11.808,16.032 L11.808,3.024 L13.632,3.024 L13.632,4.592 C13.9306667,4.08 14.344,3.66666667 14.872,3.352 C15.4,3.03733333 16.0106667,2.88 16.704,2.88 Z" id="Shape"></path>
                    <path d="M29.04,9.584 C29.5733333,9.02933333 29.84,8.29866667 29.84,7.392 C29.84,6.48533333 29.576,5.77066667 29.048,5.248 C28.52,4.72533333 27.8906667,4.464 27.16,4.464 C26.4293333,4.464 25.8,4.73066667 25.272,5.264 C24.744,5.79733333 24.48,6.51733333 24.48,7.424 C24.48,8.33066667 24.744,9.05333333 25.272,9.592 C25.8,10.1306667 26.4266667,10.4 27.152,10.4 C27.8773333,10.4 28.5066667,10.128 29.04,9.584 Z M27.552,2.88 C28.736,2.88 29.7226667,3.29866667 30.512,4.136 C31.3013333,4.97333333 31.696,6.06133333 31.696,7.4 C31.696,8.73866667 31.2986667,9.83733333 30.504,10.696 C29.7093333,11.5546667 28.7253333,11.984 27.552,11.984 C26.8586667,11.984 26.2506667,11.8213333 25.728,11.496 C25.2053333,11.1706667 24.7893333,10.736 24.48,10.192 L24.48,16.032 L22.656,16.032 L22.656,3.024 L24.48,3.024 L24.48,4.592 C24.7786667,4.08 25.192,3.66666667 25.72,3.352 C26.248,3.03733333 26.8586667,2.88 27.552,2.88 Z" id="Shape"></path>
                    <path d="M38.464,11.936 C36.9493333,11.936 35.6426667,11.4026667 34.544,10.336 C33.4453333,9.26933333 32.896,7.912 32.896,6.264 C32.896,4.616 33.4453333,3.256 34.544,2.184 C35.6426667,1.112 36.9866667,0.576 38.576,0.576 C39.76,0.576 40.8133333,0.866666667 41.736,1.448 C42.6586667,2.02933333 43.328,2.85333333 43.744,3.92 L41.552,3.92 C40.9546667,2.8 39.9626667,2.24 38.576,2.24 C37.456,2.24 36.5413333,2.608 35.832,3.344 C35.1226667,4.08 34.768,5.05333333 34.768,6.264 C34.768,7.47466667 35.1226667,8.448 35.832,9.184 C36.5413333,9.92 37.424,10.288 38.48,10.288 C39.536,10.288 40.376,10.008 41,9.448 C41.624,8.888 42,8.128 42.128,7.168 L37.952,7.168 L37.952,5.744 L44.08,5.744 L44.08,7.168 C43.9093333,8.50133333 43.312,9.62933333 42.288,10.552 C41.264,11.4746667 39.9893333,11.936 38.464,11.936 Z" id="Path"></path>
                    <path d="M51.68,9.6 C52.2133333,9.056 52.48,8.33066667 52.48,7.424 C52.48,6.51733333 52.216,5.79733333 51.688,5.264 C51.16,4.73066667 50.5333333,4.464 49.808,4.464 C49.0826667,4.464 48.456,4.72533333 47.928,5.248 C47.4,5.77066667 47.136,6.48533333 47.136,7.392 C47.136,8.29866667 47.4,9.02666667 47.928,9.576 C48.456,10.1253333 49.0826667,10.4 49.808,10.4 C50.5333333,10.4 51.1573333,10.1333333 51.68,9.6 Z M49.424,11.984 C48.2506667,11.984 47.264,11.5546667 46.464,10.696 C45.664,9.83733333 45.264,8.73866667 45.264,7.4 C45.264,6.06133333 45.6613333,4.97333333 46.456,4.136 C47.2506667,3.29866667 48.24,2.88 49.424,2.88 C50.1173333,2.88 50.728,3.03733333 51.256,3.352 C51.784,3.66666667 52.192,4.08 52.48,4.592 L52.48,3.024 L54.32,3.024 L54.32,11.84 L52.48,11.84 L52.48,10.192 C52.1813333,10.736 51.7706667,11.1706667 51.248,11.496 C50.7253333,11.8213333 50.1173333,11.984 49.424,11.984 Z" id="Shape"></path>
                    <polygon id="Path" points="56.72 11.84 56.72 0 58.544 0 58.544 11.84"></polygon>
                    <polygon id="Path" points="60.944 11.84 60.944 0 62.768 0 62.768 11.84"></polygon>
                    <path d="M68.88,11.984 C67.6,11.984 66.56,11.568 65.76,10.736 C64.96,9.904 64.56,8.8 64.56,7.424 C64.56,6.048 64.9653333,4.94666667 65.776,4.12 C66.5866667,3.29333333 67.6346667,2.88 68.92,2.88 C70.2053333,2.88 71.248,3.27733333 72.048,4.072 C72.848,4.86666667 73.248,5.904 73.248,7.184 C73.248,7.49333333 73.2266667,7.78133333 73.184,8.048 L66.432,8.048 C66.4746667,8.784 66.7226667,9.368 67.176,9.8 C67.6293333,10.232 68.1973333,10.448 68.88,10.448 C69.872,10.448 70.5706667,10.0373333 70.976,9.216 L72.944,9.216 C72.6773333,10.0266667 72.192,10.6906667 71.488,11.208 C70.784,11.7253333 69.9146667,11.984 68.88,11.984 Z M71.344,6.8 C71.3333333,6.07466667 71.0933333,5.496 70.624,5.064 C70.1546667,4.632 69.584,4.416 68.912,4.416 C68.24,4.416 67.6773333,4.632 67.224,5.064 C66.7706667,5.496 66.512,6.07466667 66.448,6.8 L71.344,6.8 Z" id="Shape"></path>
                    <path d="M76.864,3.024 L76.864,4.56 C77.4293333,3.44 78.3093333,2.88 79.504,2.88 L79.504,4.768 L79.04,4.768 C78.3253333,4.768 77.784,4.94933333 77.416,5.312 C77.048,5.67466667 76.864,6.304 76.864,7.2 L76.864,11.84 L75.04,11.84 L75.04,3.024 L76.864,3.024 Z" id="Path"></path>
                    <polygon id="Path" points="83.616 11.696 80.144 3.024 82.176 3.024 84.656 9.744 87.232 3.024 89.12 3.024 83.712 15.984 81.824 15.984"></polygon>
                </g>
                <g id="Gövde-Tipine-Göre-Ara-Copy-28" transform="translate(49.000000, 26.000000)" fill="#FFFFFF" fill-rule="nonzero">
                    <path d="M0.92,0.92 C0.813333333,1.02666667 0.686666667,1.08 0.54,1.08 C0.393333333,1.08 0.266666667,1.02666667 0.16,0.92 C0.0533333333,0.813333333 0,0.686666667 0,0.54 C0,0.393333333 0.0533333333,0.266666667 0.16,0.16 C0.266666667,0.0533333333 0.393333333,0 0.54,0 C0.686666667,0 0.813333333,0.0533333333 0.92,0.16 C1.02666667,0.266666667 1.08,0.393333333 1.08,0.54 C1.08,0.686666667 1.02666667,0.813333333 0.92,0.92 Z M0.09,8.72 L0.09,1.79 L1,1.79 L1,8.72 L0.09,8.72 Z" id="Shape"></path>
                    <polygon id="Path" points="2.5 1.79 3.41 1.79 3.41 8.02 5.84 8.02 5.84 8.72 2.5 8.72"></polygon>
                    <polygon id="Path" points="10.46 1.79 10.46 2.51 7.7 2.51 7.7 4.87 10.16 4.87 10.16 5.58 7.7 5.58 7.7 8 10.46 8 10.46 8.72 6.79 8.72 6.79 1.79"></polygon>
                    <polygon id="Path" points="15.75 8.72 14.84 8.72 14.84 1.79 15.75 1.79 15.75 5 18.6 1.79 19.79 1.79 16.55 5.3 19.79 8.72 18.58 8.72 15.75 5.62"></polygon>
                    <polygon id="Path" points="24.49 1.79 24.49 2.51 21.73 2.51 21.73 4.87 24.19 4.87 24.19 5.58 21.73 5.58 21.73 8 24.49 8 24.49 8.72 20.82 8.72 20.82 1.79"></polygon>
                    <path d="M29.25,3.47 C29.2233333,3.19666667 29.095,2.96333333 28.865,2.77 C28.635,2.57666667 28.325,2.48 27.935,2.48 C27.545,2.48 27.2266667,2.57833333 26.98,2.775 C26.7333333,2.97166667 26.61,3.26 26.61,3.64 C26.61,3.89333333 26.68,4.10333333 26.82,4.27 C26.96,4.43666667 27.14,4.56 27.36,4.64 C27.58,4.72 27.825,4.79 28.095,4.85 C28.365,4.91 28.635,4.97833333 28.905,5.055 C29.175,5.13166667 29.42,5.23 29.64,5.35 C29.86,5.47 30.04,5.65 30.18,5.89 C30.32,6.13 30.39,6.42666667 30.39,6.78 C30.39,7.27333333 30.215,7.71166667 29.865,8.095 C29.515,8.47833333 29.03,8.70333333 28.41,8.77 L28.41,9.25 C28.7966667,9.25 29.11,9.34166667 29.35,9.525 C29.59,9.70833333 29.71,9.95666667 29.71,10.27 C29.71,10.5833333 29.5916667,10.8366667 29.355,11.03 C29.1183333,11.2233333 28.8133333,11.32 28.44,11.32 L27.25,11.32 L27.25,10.69 L28.32,10.69 C28.6933333,10.69 28.88,10.5516667 28.88,10.275 C28.88,9.99833333 28.6933333,9.86 28.32,9.86 L27.77,9.86 L27.77,8.78 C27.1633333,8.73333333 26.67,8.55166667 26.29,8.235 C25.91,7.91833333 25.72,7.50333333 25.72,6.99 L26.69,6.99 C26.7166667,7.30333333 26.8416667,7.55666667 27.065,7.75 C27.2883333,7.94333333 27.62,8.04 28.06,8.04 C28.5,8.04 28.85,7.92666667 29.11,7.7 C29.37,7.47333333 29.5,7.20833333 29.5,6.905 C29.5,6.60166667 29.43,6.36833333 29.29,6.205 C29.15,6.04166667 28.97,5.92 28.75,5.84 C28.53,5.76 28.285,5.69166667 28.015,5.635 C27.745,5.57833333 27.475,5.51 27.205,5.43 C26.935,5.35 26.69,5.24833333 26.47,5.125 C26.25,5.00166667 26.07,4.81833333 25.93,4.575 C25.79,4.33166667 25.72,4.03 25.72,3.67 C25.72,3.08333333 25.9283333,2.61166667 26.345,2.255 C26.7616667,1.89833333 27.305,1.72 27.975,1.72 C28.645,1.72 29.1783333,1.875 29.575,2.185 C29.9716667,2.495 30.2,2.92333333 30.26,3.47 L29.25,3.47 Z" id="Path"></path>
                    <polygon id="Path" points="31.74 8.72 31.74 1.79 35.64 1.79 35.64 2.52 32.65 2.52 32.65 4.87 35.01 4.87 35.01 5.59 32.65 5.59 32.65 8.72"></polygon>
                    <polygon id="Path" points="40.31 1.79 40.31 2.51 37.55 2.51 37.55 4.87 40.01 4.87 40.01 5.58 37.55 5.58 37.55 8 40.31 8 40.31 8.72 36.64 8.72 36.64 1.79"></polygon>
                    <path d="M42.6,8.02 L43.88,8.02 C44.7533333,8.02 45.42,7.78 45.88,7.3 C46.34,6.82 46.57,6.15 46.57,5.29 C46.57,4.43 46.34,3.76 45.88,3.28 C45.42,2.8 44.7533333,2.56 43.88,2.56 L42.6,2.56 L42.6,8.02 Z M43.88,1.79 C45,1.79 45.8833333,2.10333333 46.53,2.73 C47.1766667,3.35666667 47.5,4.21 47.5,5.29 C47.5,6.37 47.1766667,7.21166667 46.53,7.815 C45.8833333,8.41833333 45,8.72 43.88,8.72 L41.69,8.72 L41.69,1.79 L43.88,1.79 Z" id="Shape"></path>
                    <path d="M49.48,0.92 C49.3733333,1.02666667 49.2466667,1.08 49.1,1.08 C48.9533333,1.08 48.8266667,1.02666667 48.72,0.92 C48.6133333,0.813333333 48.56,0.686666667 48.56,0.54 C48.56,0.393333333 48.6133333,0.266666667 48.72,0.16 C48.8266667,0.0533333333 48.9533333,0 49.1,0 C49.2466667,0 49.3733333,0.0533333333 49.48,0.16 C49.5866667,0.266666667 49.64,0.393333333 49.64,0.54 C49.64,0.686666667 49.5866667,0.813333333 49.48,0.92 Z M48.65,8.72 L48.65,1.79 L49.56,1.79 L49.56,8.72 L48.65,8.72 Z" id="Shape"></path>
                    <polygon id="Path" points="55.63 1.79 56.54 1.79 56.54 8.72 55.63 8.72 51.97 3.22 51.97 8.72 51.06 8.72 51.06 1.79 51.97 1.79 55.63 7.29"></polygon>
                </g>
                <g id="huawei-appgallery-seeklogo.com-copy-2" transform="translate(14.000000, 11.000000)" fill-rule="nonzero">
                    <rect id="Rectangle" fill="#E14459" x="0" y="0" width="26" height="26" rx="4"></rect>
                    <path d="M6.31745231,1.85755946 C5.90514407,1.85824185 5.5712447,2.27402783 5.57142865,2.7865404 C5.57179611,3.29921185 5.90634207,3.71450824 6.31877858,3.71428058 C6.7312159,3.71405294 7.0654653,3.29838583 7.0654653,2.78571317 L7.0654653,2.78405871 C7.06473082,2.27138829 6.72988815,1.85646238 6.31745231,1.85714501 L6.31745231,1.85755946 Z M19.6802269,1.85755946 C19.2679186,1.85824185 18.9340193,2.27402783 18.9342032,2.7865404 C18.9345707,3.29937291 19.2693188,3.71473594 19.6818847,3.71428086 C20.094322,3.71405294 20.4285714,3.29838583 20.4285714,2.78571317 L20.4285714,2.78405871 C20.427837,2.2712271 20.0927921,1.85623455 19.6802269,1.85714435 L19.6802269,1.85755946 Z" id="Shape" fill="#C73148"></path>
                    <path d="M6.41322067,2.78612675 C6.15786353,2.79992807 6.17047808,3.17387808 6.17047808,3.17387808 C7.54324941,5.86710676 10.0700785,7.18776147 12.9843459,7.18809008 C15.8946999,7.18381824 18.4466407,5.8483764 19.8173508,3.15909095 C19.8173508,3.15909095 19.8714879,2.65271401 19.3366402,2.82818791 C17.9310345,5.17572643 15.5698778,6.56440193 12.9859766,6.56867377 C10.3975096,6.56933097 8.04450602,5.195114 6.63629128,2.84330364 C6.54497583,2.79894226 6.47224959,2.78284072 6.41322067,2.78612675 L6.41322067,2.78612675 Z M15.7013068,13.2534409 L14.9205597,15.5963789 L14.1606846,13.2550839 L13.4187466,13.2550839 L14.6162835,16.6613807 L15.1938538,16.6613807 L15.9765577,14.4239241 L16.757957,16.6613807 L17.3404192,16.6613807 L18.5356732,13.2554125 L17.8123244,13.2554125 L17.0508187,15.5967075 L16.2700716,13.2537695 L15.7013068,13.2534409 Z M11.5542807,13.2544267 L10.0394226,16.6590804 L10.751357,16.6590804 L11.0438925,15.9999032 L11.0647646,15.9502842 L12.6386517,15.9502842 L12.9471675,16.6590804 L13.6786695,16.6590804 L12.1775087,13.2744714 L12.1644636,13.2544267 L11.5542807,13.2544267 Z M22.5258324,13.2544267 L22.5258324,16.6571088 L23.2142857,16.6571088 L23.2142857,13.2547553 L22.5258324,13.2544267 Z M2.78571429,13.2550839 L2.78571429,16.6623665 L3.48362525,16.6623665 L3.48362525,15.27862 L5.05881682,15.27862 L5.05881682,16.6620379 L5.75705391,16.6620379 L5.75705391,13.2554125 L5.05914295,13.2554125 L5.05914295,14.6299581 L3.48395138,14.6299581 L3.48395138,13.2554125 L2.78571429,13.2550839 Z M8.98668582,13.2560697 L8.98668582,15.2063274 C8.98668582,15.7600231 8.7094782,16.0557657 8.20496032,16.0557657 C7.69815955,16.0557657 7.41899517,15.7518081 7.41899517,15.182668 L7.41899517,13.2580413 L6.72075807,13.2580413 L6.72075807,15.2063274 C6.72075807,16.1648618 7.258867,16.7142857 8.19582877,16.7142857 C9.14159597,16.7142857 9.68394454,16.1543465 9.68394454,15.1780675 L9.68394454,13.2557411 L8.98668582,13.2560697 Z M19.0985678,13.2573841 L19.0985678,16.6597376 L21.695514,16.6597376 L21.695514,16.0393355 L19.7866949,16.0393355 L19.7866949,15.1958121 L21.0556536,15.1958121 L21.0556536,14.5747528 L19.7866949,14.5747528 L19.7866949,13.8781148 L21.6293103,13.8781148 L21.6293103,13.2577127 L19.0985678,13.2573841 Z M11.8497514,14.1163519 L12.3474206,15.2572608 L12.3813378,15.3357969 L11.3256659,15.3357969 L11.3589309,15.2572608 L11.8497514,14.1163519 Z" id="Shape" fill="#FFFFFF"></path>
                </g>
            </g>
        </g>
    </g>
</svg>